<svg width="23" height="24" viewBox="0 0 23 24" fill="none" xmlns="http://www.w3.org/2000/svg">
<path d="M19.9045 9.31942C19.2316 8.21756 18.3828 7.23332 17.3918 6.40577L19.4789 4.31873C19.6147 4.17815 19.6898 3.98987 19.6881 3.79444C19.6864 3.599 19.608 3.41205 19.4698 3.27386C19.3316 3.13566 19.1447 3.05727 18.9492 3.05557C18.7538 3.05387 18.5655 3.129 18.4249 3.26478L16.1553 5.53741C14.7483 4.70172 13.1398 4.26615 11.5034 4.27773C6.88883 4.27773 4.25917 7.43661 3.10235 9.31942C2.74497 9.89746 2.55566 10.5636 2.55566 11.2432C2.55566 11.9228 2.74497 12.589 3.10235 13.167C3.77524 14.2689 4.62402 15.2531 5.615 16.0807L3.52796 18.1677C3.45677 18.2365 3.39998 18.3187 3.36092 18.4097C3.32186 18.5006 3.30129 18.5984 3.30043 18.6974C3.29957 18.7963 3.31843 18.8945 3.35591 18.9861C3.39339 19.0777 3.44874 19.1609 3.51872 19.2309C3.58871 19.3009 3.67193 19.3562 3.76353 19.3937C3.85513 19.4312 3.95328 19.4501 4.05225 19.4492C4.15122 19.4483 4.24903 19.4278 4.33997 19.3887C4.43091 19.3496 4.51315 19.2929 4.58191 19.2217L6.85678 16.9468C8.26201 17.7824 9.86858 18.2187 11.5034 18.2087C16.118 18.2087 18.7477 15.0498 19.9045 13.167C20.2619 12.589 20.4512 11.9228 20.4512 11.2432C20.4512 10.5636 20.2619 9.89746 19.9045 9.31942ZM4.37246 12.3866C4.16013 12.043 4.04767 11.6471 4.04767 11.2432C4.04767 10.8393 4.16013 10.4434 4.37246 10.0998C5.36679 8.48535 7.61408 5.76848 11.5034 5.76848C12.7409 5.76154 13.9611 6.05979 15.0559 6.63683L13.5554 8.13726C12.8398 7.66216 11.9819 7.44928 11.1272 7.53474C10.2725 7.6202 9.47368 7.99873 8.8663 8.6061C8.25893 9.21348 7.8804 10.0123 7.79494 10.867C7.70948 11.7217 7.92237 12.5796 8.39746 13.2952L6.67566 15.017C5.76266 14.2789 4.98355 13.3891 4.37246 12.3866ZM13.7395 11.2432C13.7395 11.8363 13.5039 12.405 13.0846 12.8244C12.6652 13.2437 12.0965 13.4793 11.5034 13.4793C11.1714 13.478 10.8439 13.4016 10.5456 13.2557L13.5159 10.2854C13.6618 10.5837 13.7382 10.9112 13.7395 11.2432ZM9.26731 11.2432C9.26731 10.6502 9.5029 10.0814 9.92225 9.66205C10.3416 9.2427 10.9104 9.00711 11.5034 9.00711C11.8355 9.0084 12.1629 9.08484 12.4612 9.23072L9.49092 12.201C9.34504 11.9027 9.2686 11.5753 9.26731 11.2432ZM18.6344 12.3866C17.6401 14.0011 15.3928 16.718 11.5034 16.718C10.2659 16.7249 9.04576 16.4266 7.95099 15.8496L9.45142 14.3492C10.167 14.8243 11.025 15.0372 11.8797 14.9517C12.7344 14.8662 13.5332 14.4877 14.1405 13.8803C14.7479 13.273 15.1264 12.4742 15.2119 11.6195C15.2974 10.7648 15.0845 9.90682 14.6094 9.19122L16.3312 7.46941C17.2442 8.20754 18.0233 9.09733 18.6344 10.0998C18.8467 10.4434 18.9592 10.8393 18.9592 11.2432C18.9592 11.6471 18.8467 12.043 18.6344 12.3866Z" fill="#B0BABF"/>
</svg>
