<svg width="23" height="24" viewBox="0 0 23 24" fill="none" xmlns="http://www.w3.org/2000/svg">
<path d="M20.0756 9.42459C18.9082 7.52328 16.2526 4.33334 11.5919 4.33334C6.93123 4.33334 4.27571 7.52328 3.10828 9.42459C2.74738 10.0083 2.55621 10.681 2.55621 11.3673C2.55621 12.0536 2.74738 12.7263 3.10828 13.31C4.27571 15.2113 6.93123 18.4013 11.5919 18.4013C16.2526 18.4013 18.9082 15.2113 20.0756 13.31C20.4365 12.7263 20.6277 12.0536 20.6277 11.3673C20.6277 10.681 20.4365 10.0083 20.0756 9.42459ZM18.7922 12.5219C17.7896 14.1523 15.5203 16.8959 11.5919 16.8959C7.6636 16.8959 5.39422 14.1523 4.39163 12.5219C4.17721 12.175 4.06364 11.7752 4.06364 11.3673C4.06364 10.9594 4.17721 10.5596 4.39163 10.2127C5.39422 8.58232 7.6636 5.83874 11.5919 5.83874C15.5203 5.83874 17.7896 8.57931 18.7922 10.2127C19.0067 10.5596 19.1202 10.9594 19.1202 11.3673C19.1202 11.7752 19.0067 12.175 18.7922 12.5219Z" fill="#B0BABF"/>
<path d="M11.5925 7.60294C10.8481 7.60294 10.1205 7.82366 9.50159 8.2372C8.88268 8.65074 8.40031 9.23851 8.11546 9.9262C7.83061 10.6139 7.75608 11.3706 7.9013 12.1006C8.04651 12.8307 8.40495 13.5013 8.93128 14.0276C9.45761 14.5539 10.1282 14.9124 10.8582 15.0576C11.5883 15.2028 12.345 15.1283 13.0327 14.8434C13.7204 14.5586 14.3082 14.0762 14.7217 13.4573C15.1352 12.8384 15.356 12.1108 15.356 11.3664C15.3548 10.3687 14.9579 9.41209 14.2523 8.70656C13.5468 8.00102 12.5902 7.60413 11.5925 7.60294ZM11.5925 13.6245C11.1459 13.6245 10.7093 13.4921 10.3379 13.244C9.9666 12.9958 9.67717 12.6432 9.50626 12.2306C9.33535 11.8179 9.29064 11.3639 9.37776 10.9259C9.46489 10.4879 9.67996 10.0855 9.99576 9.76971C10.3116 9.45391 10.7139 9.23885 11.1519 9.15172C11.59 9.06459 12.044 9.10931 12.4566 9.28022C12.8692 9.45113 13.2219 9.74055 13.47 10.1119C13.7181 10.4832 13.8506 10.9198 13.8506 11.3664C13.8506 11.9653 13.6127 12.5397 13.1892 12.9631C12.7657 13.3866 12.1914 13.6245 11.5925 13.6245Z" fill="#B0BABF"/>
</svg>
