<svg width="18" height="18" viewBox="0 0 18 18" fill="none" xmlns="http://www.w3.org/2000/svg">
<g clip-path="url(#clip0_686_708)">
<path d="M9.40926 0C8.95739 0 8.59106 0.366328 8.59106 0.818191V4.09092C8.59106 4.54279 8.95739 4.90911 9.40926 4.90911C9.86112 4.90911 10.2274 4.54279 10.2274 4.09092V0.818191C10.2274 0.366328 9.86112 0 9.40926 0Z" fill="black"/>
<path d="M9.40926 13.0908C8.95739 13.0908 8.59106 13.4571 8.59106 13.909V17.1817C8.59106 17.6336 8.95739 17.9999 9.40926 17.9999C9.86112 17.9999 10.2274 17.6336 10.2274 17.1817V13.909C10.2274 13.4571 9.86112 13.0908 9.40926 13.0908Z" fill="black"/>
<path d="M6.51657 4.9504L4.20238 2.63614C3.88295 2.3166 3.36489 2.3166 3.04532 2.63614C2.72578 2.95567 2.72578 3.4737 3.04532 3.7932L5.35951 6.10746C5.4354 6.18355 5.52557 6.24389 5.62485 6.28502C5.72412 6.32614 5.83055 6.34725 5.93801 6.34712C6.04547 6.34726 6.15189 6.32616 6.25117 6.28503C6.35045 6.2439 6.44062 6.18356 6.5165 6.10746C6.83611 5.78793 6.83611 5.26994 6.51657 4.9504Z" fill="black"/>
<path d="M16.7728 8.18188H15.1365C14.6846 8.18188 14.3183 8.54821 14.3183 9.00008C14.3183 9.45194 14.6846 9.81827 15.1365 9.81827H16.7728C17.2247 9.81827 17.591 9.45194 17.591 9.00008C17.591 8.54821 17.2247 8.18188 16.7728 8.18188ZM13.4589 11.8928C13.1395 11.5733 12.6214 11.5734 12.3019 11.8928C11.9823 12.2124 11.9824 12.7304 12.3019 13.0499L14.6161 15.3641C14.692 15.4401 14.7822 15.5005 14.8815 15.5416C14.9808 15.5827 15.0872 15.6038 15.1947 15.6037C15.3022 15.6038 15.4086 15.5827 15.5079 15.5416C15.6072 15.5005 15.6973 15.4401 15.7732 15.3641C16.0927 15.0445 16.0927 14.5265 15.7732 14.207L13.4589 11.8928Z" fill="black"/>
<path d="M5.31829 9.00008C5.31829 8.54821 4.95196 8.18188 4.5001 8.18188H1.22737C0.775508 8.18188 0.40918 8.54821 0.40918 9.00008C0.40918 9.45194 0.775508 9.81827 1.22737 9.81827H4.5001C4.95196 9.81827 5.31829 9.45194 5.31829 9.00008Z" fill="black"/>
<path d="M6.51654 11.8927C6.19707 11.5732 5.67898 11.5732 5.35948 11.8927L3.04532 14.2069C2.72578 14.5264 2.72578 15.0444 3.04532 15.3639C3.12121 15.44 3.2114 15.5004 3.31069 15.5415C3.40998 15.5826 3.51641 15.6037 3.62388 15.6036C3.73134 15.6037 3.83777 15.5826 3.93705 15.5415C4.03633 15.5004 4.1265 15.44 4.20238 15.3639L6.51654 13.0498C6.83607 12.7303 6.83607 12.2123 6.51654 11.8927Z" fill="black"/>
</g>
<defs>
<clipPath id="clip0_686_708">
<rect width="18" height="18" fill="white"/>
</clipPath>
</defs>
</svg>
