<svg width="25" height="28" viewBox="0 0 25 28" fill="none" xmlns="http://www.w3.org/2000/svg">
<g id="Frame">
<g id="Group">
<path id="Vector" d="M12.456 26.5084L11.7299 25.886C10.7289 25.0479 1.98828 17.4992 1.98828 11.9775C1.98828 6.19634 6.67485 1.50977 12.456 1.50977C18.2372 1.50977 22.9237 6.19634 22.9237 11.9775C22.9237 17.4992 14.1832 25.0479 13.1863 25.8902L12.456 26.5084ZM12.456 3.77319C7.92705 3.77832 4.25688 7.44849 4.25176 11.9774C4.25176 15.4463 9.6293 20.9877 12.456 23.524C15.2828 20.9867 20.6603 15.4421 20.6603 11.9774C20.6551 7.44849 16.985 3.77837 12.456 3.77319Z" fill="black"/>
<path id="Vector_2" d="M12.456 16.1268C10.1644 16.1268 8.30664 14.269 8.30664 11.9774C8.30664 9.68584 10.1644 7.82812 12.456 7.82812C14.7476 7.82812 16.6053 9.68584 16.6053 11.9774C16.6053 14.269 14.7476 16.1268 12.456 16.1268ZM12.456 9.90273C11.3102 9.90273 10.3813 10.8316 10.3813 11.9774C10.3813 13.1232 11.3102 14.0521 12.456 14.0521C13.6018 14.0521 14.5306 13.1232 14.5306 11.9774C14.5306 10.8316 13.6018 9.90273 12.456 9.90273Z" fill="black"/>
</g>
</g>
</svg>
