<svg width="22" height="22" viewBox="0 0 22 22" fill="none" xmlns="http://www.w3.org/2000/svg">
<path d="M18.4594 22C18.1202 21.9991 17.7847 21.9309 17.472 21.7996C17.1594 21.6682 16.8759 21.4762 16.6379 21.2346L11.0004 15.6301L5.36294 21.2383C5.00088 21.6056 4.53655 21.8553 4.03049 21.9549C3.52442 22.0545 3.00009 21.9993 2.52586 21.7965C2.04691 21.6039 1.63719 21.2713 1.35019 20.8422C1.0632 20.4131 0.912263 19.9074 0.917105 19.3912V4.58333C0.917105 3.36776 1.39999 2.20197 2.25953 1.34243C3.11907 0.482886 4.28486 0 5.50044 0L16.5004 0C17.1023 0 17.6983 0.118551 18.2544 0.348886C18.8105 0.57922 19.3157 0.916825 19.7413 1.34243C20.1669 1.76803 20.5046 2.27329 20.7349 2.82937C20.9652 3.38544 21.0838 3.98144 21.0838 4.58333V19.3912C21.0889 19.907 20.9385 20.4123 20.6522 20.8414C20.3659 21.2704 19.9569 21.6033 19.4787 21.7965C19.1558 21.9315 18.8093 22.0007 18.4594 22ZM5.50044 1.83333C4.77109 1.83333 4.07162 2.12306 3.5559 2.63879C3.04017 3.15452 2.75044 3.85399 2.75044 4.58333V19.3912C2.75011 19.5439 2.79505 19.6933 2.8796 19.8206C2.96414 19.9478 3.08449 20.0471 3.22545 20.1059C3.3664 20.1648 3.52164 20.1805 3.67154 20.1512C3.82145 20.1219 3.9593 20.0488 4.06769 19.9412L10.3588 13.6886C10.5305 13.5179 10.7629 13.422 11.005 13.422C11.2472 13.422 11.4795 13.5179 11.6513 13.6886L17.935 19.9393C18.0434 20.047 18.1813 20.1201 18.3312 20.1494C18.4811 20.1787 18.6363 20.163 18.7773 20.1041C18.9182 20.0452 19.0386 19.9459 19.1231 19.8187C19.2077 19.6915 19.2526 19.5421 19.2523 19.3893V4.58333C19.2523 3.85399 18.9625 3.15452 18.4468 2.63879C17.9311 2.12306 17.2316 1.83333 16.5023 1.83333H5.50044Z" fill="black"/>
</svg>
