<svg width="9" height="9" viewBox="0 0 9 9" fill="none" xmlns="http://www.w3.org/2000/svg">
<path d="M8.58801 1.13468C8.84761 0.875107 8.84761 0.454253 8.58801 0.19468C8.32847 -0.0648933 7.90761 -0.0648933 7.64801 0.19468L4.39134 3.45134L1.13468 0.19468C0.875107 -0.0648933 0.45426 -0.0648933 0.19468 0.19468C-0.0648933 0.454253 -0.0648933 0.875107 0.19468 1.13468L3.45134 4.39134L0.19468 7.64801C-0.0648933 7.90761 -0.0648933 8.32841 0.19468 8.58801C0.45426 8.84761 0.875107 8.84761 1.13468 8.58801L4.39134 5.33134L7.64801 8.58801C7.90761 8.84761 8.32847 8.84761 8.58801 8.58801C8.84761 8.32841 8.84761 7.90761 8.58801 7.64801L5.33134 4.39134L8.58801 1.13468Z" fill="#636366"/>
</svg>
